# xmcd
#
# Track frame offsets: 
#        150
#        10704
#        21917
#        34117
#        43731
#        55872
#        65393
#        76076
#        86830
#        99470
#        109792
#        123230
#        135265
#        151750
#        162558
#        174127
#        187262
#        199641
#        213941
#        225492
#        236241
#        248219
#        260780
#        270171
#        282338
#        294058
#        305075
#
# Disc length: 4227 seconds
#
# Revision: 0
# Processed by: cddbd v1.5.2PL0 Copyright (c) Steve Scherf et al.
# Submitted via: ExactAudioCopy v1.0b3
#
DISCID=6b10811b
DTITLE=Various Artist - Ol' Virginia Soul, Pt. 1: Jump Up and Down
DYEAR=2004
DGENRE=soul
TTITLE0=Mark IV - Jump Up and Down, Pt. 1
TTITLE1=Sebastian and The House Rockers - Nobody Can Do the Dog Like I D
TTITLE1=o
TTITLE2=Sebastian and The House Rockers - The Best Man Cryed
TTITLE3=Sinclair, Terry - What Have You Heard
TTITLE4=Sinclair, Terry - Clown Suit
TTITLE5=Guess, Lenis - For All You've Been
TTITLE6=Guess, Lenis - Thank Goodness
TTITLE7=Honey Bees - It Happen on a Tuesday
TTITLE8=Henry, Stacy and The Majestics - Thru the Lonely Years
TTITLE9=Stans, Bee Gee - Front Page Love
TTITLE10=Gene and The Team Beats - I'll Carry On
TTITLE11=Sands, Ida - Rescue Me
TTITLE12=Sands, Ida - Prophesize
TTITLE13=Anglos - Since You've Been Gone
TTITLE14=Soul Duo - This Is Your Day
TTITLE15=Stant, Barbara - I'm Going to Outfit You Baby
TTITLE16=Gene and The Teen Beats - I'll Let Nothing Separate Me
TTITLE17=Soulmasters - You Took Away the Sunshine
TTITLE18=Soul Bros. Inc. - Teardrops
TTITLE19=Red Coats Revue, Inc. - Keep on Trying
TTITLE20=D.C Magnatones - Does She Love Me
TTITLE21=Dream Team - There He Is
TTITLE22=Dream Team - I'm Not Satisfied
TTITLE23=Smith, Bernard and Jokers Wild - Gotta Be a Reason
TTITLE24=Delk, Alvin and Rocking Cavaliers - Ain't Nothin Shakin'
TTITLE25=Little Ceasar and The Euterpeans - Good Good Lovin
TTITLE26=Wilson, Mark IV - Jump Up and Down, Pt. 2
EXTD=
EXTT0=
EXTT1=
EXTT2=
EXTT3=
EXTT4=
EXTT5=
EXTT6=
EXTT7=
EXTT8=
EXTT9=
EXTT10=
EXTT11=
EXTT12=
EXTT13=
EXTT14=
EXTT15=
EXTT16=
EXTT17=
EXTT18=
EXTT19=
EXTT20=
EXTT21=
EXTT22=
EXTT23=
EXTT24=
EXTT25=
EXTT26=
PLAYORDER=
